# xmcd CD database file
#
# Track frame offsets:
#	150
#	19280
#	33395
#	47217
#	64970
#	83815
#	105407
#	126565
#	147577
#	173595
#	194480
#	219462
#
# Disc length: 3274 seconds
#
# Revision: 0
# Processed by: cddbd v1.5.1PL0 Copyright (c) Steve Scherf et al.
# Submitted via: CDex 1.51
#
DISCID=b30cc80c
DTITLE=月刊プロボーラー - テクーニョ
DYEAR=2004
DGENRE=Techno
TTITLE0=SUPER HOUSE
TTITLE1=KAZE
TTITLE2=NANAIRO GANGSTER
TTITLE3=San Frandisco
TTITLE4=TOKIMEKI WONDERLAND
TTITLE5=Boys be ambitious
TTITLE6=AB
TTITLE7=BELRIN NIGHT
TTITLE8=ROMAN BOY
TTITLE9=MURASAME LASER
TTITLE10=SAYONARA DISCO NIGHT
TTITLE11=LAST SONG
EXTD=YEAR: 2004
EXTT0=
EXTT1=
EXTT2=
EXTT3=
EXTT4=
EXTT5=
EXTT6=
EXTT7=
EXTT8=
EXTT9=
EXTT10=
EXTT11=
PLAYORDER=
